# xmcd
#
# Track frame offsets: 
#        150
#        25814
#        48504
#        63966
#        87495
#        96871
#        106953
#        128481
#        155296
#        166605
#        192855
#        215284
#        234248
#        263362
#        294923
#
# Disc length: 4188 seconds
#
# Revision: 1
# Processed by: cddbd v1.5.2PL0 Copyright (c) Steve Scherf et al.
# Submitted via: ExactAudioCopy v0.95b3
#
DISCID=b4105a0f
DTITLE=Various Artist - Rio-evolutions, vol.2
DYEAR=2005
DGENRE=Bossa Nova
TTITLE0=Fabio Nobile - Zozoi (Sunaga t Experience Remix)
TTITLE1=Nicola Conte meet Aldemaro Romero - Tema dela onda
TTITLE2=Beryl Cunningham - Lover Baby
TTITLE3=Fabio Nobile - Fly to the Moon
TTITLE4=Claudia - Gosto de ser como sou
TTITLE5=Claudia - Macumba
TTITLE6=Mop Mop - Frank and Stein
TTITLE7=Frank Hernandez - Afro Blue
TTITLE8=Stefano Mainetti - Descarga Guayaba
TTITLE9=Frank Hernandez - Baby Chickens
TTITLE10=Joe Pacheco - Y tu tanbien
TTITLE11=Joe Pacheco "Descarga Joe" Fabio Nobile and Urubamba - Tropical
TTITLE11=istas remix
TTITLE12=Gerardo Frisina meets Frank Hernandez - Baby Chickens
TTITLE13=Fabio Nobile - Zozoi (Yukihiro Fukutomi Remix)
TTITLE14=Beryl Cunningham - Why-O
EXTD=YEAR: 2005
EXTT0=
EXTT1=
EXTT2=
EXTT3=
EXTT4=
EXTT5=
EXTT6=
EXTT7=
EXTT8=
EXTT9=
EXTT10=
EXTT11=
EXTT12=
EXTT13=
EXTT14=
PLAYORDER=
